<?xml version="1.0" standalone="no"?>
<!DOCTYPE svg PUBLIC "-//W3C//DTD SVG 20010904//EN"
 "http://www.w3.org/TR/2001/REC-SVG-20010904/DTD/svg10.dtd">
<svg version="1.0" xmlns="http://www.w3.org/2000/svg"
 width="306.000000pt" height="306.000000pt" viewBox="0 0 306.000000 306.000000"
 preserveAspectRatio="xMidYMid meet">
<metadata>
Created by potrace 1.14, written by Peter Selinger 2001-2017
</metadata>
<g transform="translate(0.000000,306.000000) scale(0.100000,-0.100000)"
fill="#000000" stroke="none">
<path d="M1464 3003 c1 -16 -1 -38 -6 -50 -4 -14 -4 -23 2 -23 6 0 6 -10 -1
-27 -7 -20 -6 -28 3 -35 10 -6 10 -10 1 -16 -13 -8 -13 -29 0 -49 5 -7 4 -13
-1 -13 -4 0 -8 -37 -7 -82 0 -46 -3 -95 -6 -110 -5 -18 -4 -28 3 -28 6 0 6 -6
-2 -15 -10 -12 -10 -15 1 -15 9 0 10 -3 4 -8 -13 -9 -15 -72 -3 -72 13 0 6
-42 -10 -58 -7 -8 -10 -17 -7 -22 3 -5 -1 -11 -7 -13 -8 -3 -9 -6 -2 -6 6 -1
9 -12 6 -26 -2 -14 1 -32 8 -40 17 -21 23 -74 9 -91 -7 -9 -8 -14 -1 -14 15 0
20 -32 8 -52 -7 -12 -7 -27 1 -48 6 -16 8 -30 4 -30 -4 0 -7 -9 -8 -21 -2 -25
-21 -49 -39 -49 -8 0 -13 -3 -11 -8 1 -4 -1 -7 -4 -7 -4 0 -17 -9 -28 -19 -14
-13 -37 -20 -66 -21 -25 0 -50 -6 -57 -13 -15 -15 -32 -16 -22 -1 4 8 -7 10
-37 6 -52 -6 -119 -29 -119 -40 0 -5 -3 -6 -7 -4 -8 5 -33 -17 -34 -29 0 -4 5
-10 12 -15 10 -6 2 -18 -29 -47 -23 -21 -42 -37 -42 -34 0 3 -9 -3 -19 -12
-15 -13 -20 -14 -24 -4 -2 7 -5 2 -5 -12 0 -14 -2 -44 -5 -67 -3 -24 -2 -45 3
-48 4 -2 5 -15 3 -29 -3 -15 2 -31 14 -43 15 -15 17 -25 10 -47 -6 -18 -5 -37
4 -59 8 -18 12 -38 11 -44 -2 -8 7 -13 21 -13 24 0 72 -36 72 -55 1 -21 31
-71 52 -88 13 -10 23 -25 23 -33 0 -8 4 -14 9 -14 5 0 13 -9 16 -20 3 -11 15
-20 26 -20 10 0 19 -4 19 -10 0 -5 7 -10 16 -10 14 0 14 -3 4 -15 -9 -11 -10
-18 -1 -29 6 -7 9 -20 6 -28 -4 -9 1 -18 10 -22 9 -3 13 -2 10 3 -3 5 0 13 6
17 17 10 72 -53 64 -74 -3 -9 -3 -13 1 -9 8 8 34 -46 34 -70 0 -10 -6 -12 -21
-8 -18 6 -20 5 -10 -14 7 -12 8 -21 4 -22 -4 0 1 -4 12 -8 11 -5 20 -18 20
-32 1 -13 9 -40 17 -59 9 -19 15 -49 13 -67 -2 -20 2 -33 8 -33 9 0 9 -2 1 -8
-11 -7 -11 -82 0 -101 4 -5 3 -12 -1 -14 -5 -3 -6 -105 -3 -227 3 -121 2 -229
-1 -238 -12 -33 15 -42 128 -43 116 -1 122 -5 22 -18 l-64 -8 87 -2 c56 -1 89
3 94 11 4 6 3 8 -4 4 -6 -3 -13 -2 -17 4 -3 5 3 10 14 10 20 0 21 4 18 123 -2
68 -7 129 -12 137 -5 8 -4 11 2 7 6 -4 10 9 9 33 0 22 -4 40 -7 40 -3 0 -6 7
-6 15 0 8 4 12 9 9 4 -3 8 -1 8 5 0 5 -5 13 -10 16 -6 4 -7 12 -3 18 9 15 11
47 3 47 -8 0 -6 32 3 47 4 6 3 14 -3 18 -5 3 -10 11 -10 16 0 6 5 7 11 3 8 -5
8 -1 0 14 -14 27 -14 35 1 26 7 -5 8 -3 2 7 -9 15 -14 122 -7 151 2 9 13 20
24 23 10 4 24 16 31 28 15 29 18 150 4 159 -7 5 -6 8 3 8 10 0 11 3 2 13 -8
11 -4 17 22 29 90 43 123 51 119 28 -1 -10 2 -9 13 4 8 11 15 16 16 10 1 -5 5
7 10 26 6 27 4 38 -7 47 -13 10 -12 12 7 18 16 5 18 9 9 15 -7 5 -20 6 -28 2
-22 -8 -6 15 20 29 18 10 20 9 15 -5 -4 -9 -1 -16 4 -16 6 0 9 9 6 19 -2 10
-1 25 3 32 7 10 12 10 27 -2 16 -13 17 -12 5 3 -14 18 0 34 20 22 6 -4 8 -3 4
4 -3 6 2 15 11 21 10 6 14 11 10 11 -10 0 18 30 28 30 3 0 3 -6 -1 -12 -6 -10
-4 -10 8 0 9 7 14 21 11 32 -3 11 0 20 6 20 6 0 11 -9 11 -20 0 -11 4 -20 8
-20 4 0 8 10 8 23 0 12 6 42 14 65 11 34 11 48 2 63 -9 13 -9 19 -1 19 6 0 9
7 5 15 -3 8 0 15 7 15 7 0 8 3 2 8 -5 4 -11 22 -13 39 -3 26 0 32 12 27 10 -4
15 0 15 13 1 39 9 91 16 102 4 7 4 15 1 18 -9 9 -15 0 -19 -25 -2 -12 -6 -24
-9 -27 -6 -6 -32 54 -29 68 0 4 -4 7 -10 7 -5 0 -7 5 -4 10 3 6 2 10 -4 10 -5
0 -13 9 -16 20 -4 11 -11 17 -17 14 -7 -5 -9 -2 -5 8 3 9 0 15 -6 14 -18 -1
-158 34 -179 45 -10 5 -18 14 -18 20 0 5 -11 21 -25 33 -28 26 -61 25 -70 -4
-4 -12 -13 -16 -33 -13 -65 10 -71 13 -74 40 -2 20 -13 33 -40 47 -21 11 -36
21 -34 24 3 2 1 14 -4 27 -5 14 -5 26 3 34 6 6 7 11 1 11 -5 0 -9 27 -10 60 0
32 2 57 6 55 3 -2 4 10 2 27 -3 19 1 33 9 39 9 6 10 9 2 9 -9 0 -8 9 2 34 10
23 11 37 5 41 -6 4 -8 10 -5 14 2 5 -8 22 -24 39 l-29 30 22 21 c26 24 29 48
8 56 -8 3 -11 12 -8 20 3 8 1 15 -3 15 -5 0 -8 11 -6 25 1 14 -2 28 -6 31 -5
3 -9 10 -9 15 0 6 6 7 13 3 9 -6 9 -5 0 7 -6 8 -10 27 -9 42 2 15 0 29 -3 31
-3 2 -6 29 -6 60 1 31 -4 56 -9 56 -6 0 -5 5 2 12 6 6 8 18 3 27 -4 9 -7 39
-7 68 1 28 -2 49 -6 47 -4 -3 -6 9 -4 25 2 21 -1 31 -10 31 -8 0 -12 -10 -10
-27z m629 -1558 c-3 -8 -9 -15 -14 -15 -10 0 -12 24 -3 33 11 11 24 -3 17 -18z"/>
<path d="M1640 1951 c0 -6 4 -13 10 -16 6 -3 7 1 4 9 -7 18 -14 21 -14 7z"/>
<path d="M1868 1878 c9 -9 15 -9 24 0 9 9 7 12 -12 12 -19 0 -21 -3 -12 -12z"/>
<path d="M1968 1863 c7 -3 16 -2 19 1 4 3 -2 6 -13 5 -11 0 -14 -3 -6 -6z"/>
<path d="M967 1840 c-9 -11 -13 -20 -8 -20 11 0 35 29 29 35 -2 2 -12 -4 -21
-15z"/>
<path d="M2000 1856 c0 -2 7 -7 16 -10 8 -3 12 -2 9 4 -6 10 -25 14 -25 6z"/>
<path d="M2066 1847 c3 -10 9 -15 12 -12 3 3 0 11 -7 18 -10 9 -11 8 -5 -6z"/>
<path d="M2136 1757 c3 -10 9 -15 12 -12 3 3 0 11 -7 18 -10 9 -11 8 -5 -6z"/>
<path d="M1805 970 c-3 -6 1 -7 9 -4 18 7 21 14 7 14 -6 0 -13 -4 -16 -10z"/>
<path d="M1312 936 c1 -14 5 -23 9 -20 7 4 0 44 -7 44 -2 0 -3 -11 -2 -24z"/>
<path d="M1320 825 c0 -8 4 -15 10 -15 5 0 7 7 4 15 -4 8 -8 15 -10 15 -2 0
-4 -7 -4 -15z"/>
</g>
</svg>
